<svg width="19" height="18" viewBox="0 0 19 18" fill="none" xmlns="http://www.w3.org/2000/svg">
<path d="M4.31315 18.0001V5.85552H0.240296V18.0001H4.31315ZM2.27725 4.19639C3.69752 4.19639 4.58158 3.26383 4.58158 2.09844C4.55512 0.906769 3.69758 9.15527e-05 2.3042 9.15527e-05C0.911041 9.15527e-05 0 0.906787 0 2.09844C0 3.26388 0.883835 4.19639 2.25066 4.19639H2.27712H2.27725ZM6.56746 18.0001H10.6403V11.218C10.6403 10.855 10.6668 10.4924 10.7743 10.2329C11.0688 9.50774 11.7389 8.75663 12.864 8.75663C14.3378 8.75663 14.9274 9.87033 14.9274 11.5029V18H19V11.0364C19 7.30609 16.9907 5.5704 14.311 5.5704C12.1138 5.5704 11.1491 6.7876 10.6132 7.61662H10.6404V5.85527H6.56755C6.621 6.99485 6.56755 17.9998 6.56755 17.9998L6.56746 18.0001Z" fill="white"/>
</svg>
