<svg width="107" height="107" viewBox="0 0 107 107" fill="none" xmlns="http://www.w3.org/2000/svg">
<g filter="url(#filter0_d)">
<circle cx="53.5" cy="49.5" r="33.5" fill="#E3AE3B" fill-opacity="0.2"/>
</g>
<path fill-rule="evenodd" clip-rule="evenodd" d="M47 40V58C47 58.7912 47.8752 59.269 48.5408 58.8412L62.5408 49.8412C63.1531 49.4475 63.1531 48.5525 62.5408 48.1588L48.5408 39.1588C47.8752 38.731 47 39.2088 47 40ZM60.1507 49L49 56.1683V41.8317L60.1507 49Z" fill="#E3AE3B"/>
<path d="M48.5408 58.8412L48.4056 58.6309H48.4056L48.5408 58.8412ZM62.5408 49.8412L62.6759 50.0515H62.6759L62.5408 49.8412ZM62.5408 48.1588L62.6759 47.9485H62.6759L62.5408 48.1588ZM48.5408 39.1588L48.4056 39.3691L48.5408 39.1588ZM49 56.1683H48.75V56.6263L49.1352 56.3786L49 56.1683ZM60.1507 49L60.2859 49.2103L60.6131 49L60.2859 48.7897L60.1507 49ZM49 41.8317L49.1352 41.6214L48.75 41.3738V41.8317H49ZM47.25 58V40H46.75V58H47.25ZM48.4056 58.6309C47.9064 58.9518 47.25 58.5934 47.25 58H46.75C46.75 58.989 47.8441 59.5863 48.6759 59.0515L48.4056 58.6309ZM62.4056 49.6309L48.4056 58.6309L48.6759 59.0515L62.6759 50.0515L62.4056 49.6309ZM62.4056 48.3691C62.8648 48.6643 62.8648 49.3357 62.4056 49.6309L62.6759 50.0515C63.4414 49.5594 63.4414 48.4406 62.6759 47.9485L62.4056 48.3691ZM48.4056 39.3691L62.4056 48.3691L62.6759 47.9485L48.6759 38.9485L48.4056 39.3691ZM47.25 40C47.25 39.4066 47.9064 39.0482 48.4056 39.3691L48.6759 38.9485C47.8441 38.4137 46.75 39.011 46.75 40H47.25ZM49.1352 56.3786L60.2859 49.2103L60.0156 48.7897L48.8648 55.958L49.1352 56.3786ZM48.75 41.8317V56.1683H49.25V41.8317H48.75ZM60.2859 48.7897L49.1352 41.6214L48.8648 42.042L60.0156 49.2103L60.2859 48.7897Z" fill="#E3AE3B"/>
<defs>
<filter id="filter0_d" x="0" y="0" width="107" height="107" filterUnits="userSpaceOnUse" color-interpolation-filters="sRGB">
<feFlood flood-opacity="0" result="BackgroundImageFix"/>
<feColorMatrix in="SourceAlpha" type="matrix" values="0 0 0 0 0 0 0 0 0 0 0 0 0 0 0 0 0 0 127 0"/>
<feOffset dy="4"/>
<feGaussianBlur stdDeviation="10"/>
<feColorMatrix type="matrix" values="0 0 0 0 1 0 0 0 0 1 0 0 0 0 1 0 0 0 0.1 0"/>
<feBlend mode="normal" in2="BackgroundImageFix" result="effect1_dropShadow"/>
<feBlend mode="normal" in="SourceGraphic" in2="effect1_dropShadow" result="shape"/>
</filter>
</defs>
</svg>
