<svg width="20" height="17" viewBox="0 0 20 17" fill="none" xmlns="http://www.w3.org/2000/svg">
<path d="M19.9902 3.93272C19.9006 5.84573 18.541 8.46509 15.9115 11.7908C13.1924 15.2637 10.8915 17.0001 9.00905 17.0001C7.84371 17.0001 6.85765 15.9406 6.05087 13.8215L4.4373 7.9942C3.83969 5.87517 3.19725 4.81565 2.50999 4.81565C2.36059 4.81565 1.83767 5.12468 0.941245 5.74273L0 4.55077C0.986063 3.69727 1.95718 2.84377 2.91337 1.99028C4.22811 0.871902 5.21417 0.283281 5.87155 0.224415C7.42535 0.0772631 8.38153 1.12206 8.7401 3.35882C9.12854 5.77216 9.39747 7.27315 9.54687 7.86177C9.99508 9.86308 10.4881 10.8637 11.026 10.8637C11.4443 10.8637 12.0718 10.2163 12.9085 8.9213C13.7451 7.62634 14.1933 6.6404 14.2531 5.96348C14.3726 4.8451 13.9244 4.28591 12.9085 4.28591C12.4304 4.28591 11.9373 4.38892 11.4294 4.59494C12.4154 1.44582 14.2979 -0.0845943 17.0768 0.00370395C19.1386 0.0625694 20.1097 1.37225 19.9902 3.93275L19.9902 3.93272Z" fill="white"/>
</svg>
